<?xml version="1.0" ?><svg xmlns="http://www.w3.org/2000/svg" xmlns:xlink="http://www.w3.org/1999/xlink" version="1.1" viewBox="0 0 512 512" style="enable-background:new 0 0 512 512;" xml:space="preserve"><g id="_x30_9_x2C__Police_Fine_x2C__police_x2C__fine_x2C__humanpictos_x2C__law_x2C__security" fill="#1c7d34"><g><path d="M240.261,140.486c-18.909,1.39-37.785-4.416-52.802-17.12c-3.72-3.146-9.163-3.155-12.893-0.022    c-15.112,12.7-34.012,18.456-52.861,17.141c-5.694-0.411-10.629,4.081-10.696,9.859c-0.152,13.075,1.574,25.375,10.644,46.262    c13.605,31.332,36.774,51.403,53.814,62.724c3.35,2.227,7.715,2.229,11.066,0c17.04-11.32,40.209-31.392,53.814-62.724    c9.069-20.887,10.796-33.187,10.644-46.262C250.924,144.597,246.03,140.071,240.261,140.486z M222.002,188.639    c-10.26,23.628-27.041,39.9-41.002,50.163c-13.961-10.263-30.742-26.535-41.002-50.163c-5.291-12.184-7.617-20.559-8.513-28.088    c17.945-0.872,34.963-6.706,49.495-16.928c14.538,10.286,31.569,16.122,49.53,16.958    C229.613,168.103,227.286,176.471,222.002,188.639z"/><path d="M121,301v50c0,5.522,4.478,10,10,10h160c5.522,0,10-4.478,10-10s-4.478-10-10-10H141v-30h240v30h-50    c-5.522,0-10,4.478-10,10s4.478,10,10,10h60c5.522,0,10-4.478,10-10v-50c0-5.522-4.478-10-10-10H131    C125.478,291,121,295.478,121,301z"/><path d="M431,51h-73.82l-7.236-14.472C348.25,33.14,344.788,31,341,31h-30V11c0-5.522-4.478-10-10-10h-90c-5.522,0-10,4.478-10,10    v20h-30c-3.788,0-7.25,2.14-8.944,5.528L154.82,51H81c-5.522,0-10,4.478-10,10v140c0,5.522,4.478,10,10,10s10-4.478,10-10V71    h53.82l-2.764,5.528C138.736,83.168,143.573,91,151,91h210c7.418,0,12.268-7.825,8.944-14.472L367.18,71H421v420H91V241    c0-5.522-4.478-10-10-10s-10,4.478-10,10v260c0,5.522,4.478,10,10,10h350c5.522,0,10-4.478,10-10V61C441,55.478,436.522,51,431,51    z M167.181,71l10-20H211c5.522,0,10-4.478,10-10V21h70v20c0,5.522,4.478,10,10,10h33.819l10,20H167.181z"/><path d="M281,161h110c5.522,0,10-4.478,10-10s-4.478-10-10-10H281c-5.522,0-10,4.478-10,10S275.478,161,281,161z"/><path d="M281,211h110c5.522,0,10-4.478,10-10s-4.478-10-10-10H281c-5.522,0-10,4.478-10,10S275.478,211,281,211z"/><path d="M281,261h60c5.522,0,10-4.478,10-10s-4.478-10-10-10h-60c-5.522,0-10,4.478-10,10S275.478,261,281,261z"/><path d="M401,401c0-5.522-4.478-10-10-10H131c-5.522,0-10,4.478-10,10s4.478,10,10,10h260C396.522,411,401,406.522,401,401z"/><path d="M131,441c-5.522,0-10,4.478-10,10s4.478,10,10,10h170c5.522,0,10-4.478,10-10s-4.478-10-10-10H131z"/></g></g><g id="Layer_1"/></svg>